<?xml version="1.0" standalone="no"?><!DOCTYPE svg PUBLIC "-//W3C//DTD SVG 1.1//EN" "http://www.w3.org/Graphics/SVG/1.1/DTD/svg11.dtd"><svg t="1639709774392" class="icon" viewBox="0 0 1024 1024" version="1.1" xmlns="http://www.w3.org/2000/svg" p-id="2975" xmlns:xlink="http://www.w3.org/1999/xlink" width="200" height="200"><defs><style type="text/css"></style></defs><path d="M513.378 202.1h-159.964V114.432c0-13.33 10.806-24.134 24.134-24.134h111.696c13.33 0 24.134 10.806 24.134 24.134z" fill="#918291" p-id="2976"></path><path d="M513.37 114.436v87.662h-39.828V114.436a24.12 24.12 0 0 0-24.136-24.136h39.828a24.118 24.118 0 0 1 24.136 24.136z" fill="#7A6D79" p-id="2977"></path><path d="M628.854 455.66c-23.848-45.844-56.834-89.99-81.594-136.684-22.03-41.544-33.88-116.876-33.88-116.876h-79.982-79.982s-11.852 75.332-33.882 116.876c-24.76 46.694-57.746 90.84-81.594 136.684-38.696 74.386-35.036 149.822 7.03 223.314 21.7 37.912 43.01 76.064 62.992 114.918 14.86 28.894 28.462 58.16 40.04 88.524 10.586 27.766 17.466 63.66 31.638 92.9 21.808 44.994 85.704 44.996 107.512 0 14.172-29.24 21.052-65.134 31.638-92.9 11.578-30.366 25.18-59.632 40.04-88.524 19.982-38.854 41.292-77.006 62.992-114.918 42.068-73.492 45.728-148.928 7.032-223.314z" fill="#6ED5A1" p-id="2978"></path><path d="M621.822 678.974c-21.706 37.916-43.014 76.072-62.988 114.924-14.856 28.896-28.458 58.148-40.048 88.518-10.574 27.76-17.464 63.664-31.644 92.898-14.518 29.97-47.714 39.988-74.718 30.03 13.542-4.978 25.51-14.996 32.798-30.03 14.178-29.234 21.07-65.138 31.644-92.898 11.57-30.368 25.19-59.622 40.046-88.518 19.974-38.852 41.282-77.008 62.988-114.924 42.058-73.502 45.722-148.936 7.03-223.314-23.838-45.842-56.834-89.99-81.588-136.69-22.044-41.54-33.894-116.874-33.894-116.874h41.918s11.87 75.334 33.894 116.874c24.752 46.698 57.75 90.848 81.588 136.69 38.696 74.38 35.052 149.812-7.026 223.314z" fill="#46CC8D" p-id="2979"></path><path d="M624.21 674.712c-26.844 8.862-37.04 27.222-79.358 27.222-55.74 0-55.74-31.862-111.478-31.862s-55.74 31.862-111.478 31.862c-42.298 0-52.494-18.342-79.318-27.202-30.05-54.484-39.012-110.004-25.23-165.326 48.908 2.53 51.218 31.684 104.548 31.684 55.74 0 55.74-31.862 111.478-31.862s55.74 31.862 111.478 31.862c53.35 0 55.64-28.138 104.588-30.648 13.78 55.322 4.84 109.786-25.23 164.27z" fill="#EE6161" p-id="2980"></path><path d="M196.254 189.398c-5.002 19.146-19.022 53.058-56.686 64.128-2.568 0.754-2.568 4.422 0 5.176 37.664 11.07 51.684 44.982 56.686 64.128 0.704 2.694 4.528 2.694 5.232 0 5.002-19.146 19.022-53.058 56.686-64.128 2.568-0.754 2.568-4.422 0-5.176-37.664-11.07-51.684-44.982-56.686-64.128-0.704-2.692-4.528-2.692-5.232 0z" fill="#FEE45A" p-id="2981"></path><path d="M258.18 258.698c-37.678 11.072-51.696 44.986-56.694 64.122-0.698 2.708-4.52 2.708-5.238 0-2.788-10.654-8.364-25.908-19.276-39.23 6.094-17.664 18.998-41.282 45.842-52.552 8.504 9.598 19.954 17.962 35.368 22.482 2.568 0.758 2.568 4.422-0.002 5.178z" fill="#FED402" p-id="2982"></path><path d="M692.34 768.94c-5.002 19.146-19.022 53.058-56.686 64.128-2.568 0.754-2.568 4.422 0 5.176 37.664 11.07 51.684 44.982 56.686 64.128 0.704 2.694 4.528 2.694 5.232 0 5.002-19.146 19.022-53.058 56.686-64.128 2.568-0.754 2.568-4.422 0-5.176-37.664-11.07-51.684-44.982-56.686-64.128-0.704-2.692-4.528-2.692-5.232 0z" fill="#FEE45A" p-id="2983"></path><path d="M754.266 838.24c-37.678 11.072-51.696 44.986-56.694 64.122-0.698 2.708-4.52 2.708-5.238 0-2.788-10.654-8.364-25.908-19.276-39.23 6.094-17.664 18.998-41.282 45.842-52.552 8.504 9.598 19.954 17.962 35.368 22.482 2.566 0.758 2.566 4.422-0.002 5.178z" fill="#FED402" p-id="2984"></path><path d="M822.514 538.866c-5.002 19.146-19.022 53.058-56.686 64.128-2.568 0.754-2.568 4.422 0 5.176 37.664 11.07 51.684 44.982 56.686 64.128 0.704 2.694 4.528 2.694 5.232 0 5.002-19.146 19.022-53.058 56.686-64.128 2.568-0.754 2.568-4.422 0-5.176-37.664-11.07-51.684-44.982-56.686-64.128-0.702-2.694-4.528-2.694-5.232 0z" fill="#FEE45A" p-id="2985"></path><path d="M884.44 608.166c-37.678 11.072-51.696 44.986-56.694 64.122-0.698 2.708-4.52 2.708-5.238 0-2.788-10.654-8.364-25.908-19.276-39.23 6.094-17.664 18.998-41.282 45.842-52.552 8.504 9.598 19.954 17.962 35.368 22.482 2.568 0.756 2.568 4.42-0.002 5.178z" fill="#FED402" p-id="2986"></path><path d="M624.212 675.75c-21.09 6.97-31.902 19.794-56.098 24.972a4239.1 4239.1 0 0 1 11.79-20.71c29.97-52.374 40.444-105.702 29.99-158.952 10.156-5.276 21.766-9.698 39.55-10.614 23.676 80.39-21.21 158.014-25.232 165.304z" fill="#E94444" p-id="2987"></path><path d="M664.404 613.62c7.884-32.582 8.538-66.582 1.592-99.392-10.688-50.488-38.812-93.294-65.792-135.862-9.236-14.574-18.786-29.646-27.544-44.58a14.928 14.928 0 0 0-20.438-5.33 14.934 14.934 0 0 0-5.33 20.438c9.018 15.382 18.708 30.674 28.08 45.464 6.168 9.734 12.18 19.24 17.97 28.672-13.002 7.426-24.324 13.814-48.09 13.814-23.902 0-35.22-6.47-48.328-13.964-14.678-8.39-31.314-17.9-63.152-17.9s-48.474 9.51-63.15 17.9c-13.106 7.494-24.424 13.964-48.328 13.964-23.736 0-35.068-6.38-48.056-13.806 5.788-9.43 11.8-18.934 17.968-28.67 14.01-22.11 28.498-44.974 40.918-68.394 17.594-33.18 28.756-85.112 33.226-108.938h134.89c2.766 14.71 8.092 40.184 15.896 65.336a14.932 14.932 0 0 0 18.692 9.836 14.936 14.936 0 0 0 9.836-18.692c-10.012-32.254-15.88-66.164-16.956-72.638V114.432c0-19.87-14.92-36.286-34.138-38.724V60.78c0-33.516-27.266-60.78-60.78-60.78s-60.78 27.264-60.78 60.78v14.928c-19.218 2.436-34.138 18.854-34.138 38.724v86.456c-1.534 9.238-12.904 74.816-32.14 111.092-11.88 22.402-26.052 44.77-39.76 66.398-8.832 13.938-17.842 28.168-26.354 42.574l-0.08 0.136c-5.412 9.164-10.628 18.398-15.454 27.678-40.658 78.162-38.196 158.112 7.318 237.628 10.166 17.76 20.242 35.568 30.134 53.482 15.292 27.692 30.392 55.43 44.216 83.938 10.136 20.9 19.414 42.222 27.688 63.926 3.998 10.484 7.486 22.346 11.178 34.906 5.848 19.886 11.894 40.45 20.976 59.188C378.806 1007.842 404.556 1024 433.398 1024s54.588-16.158 67.194-42.168c9.082-18.738 15.128-39.298 20.974-59.184 3.694-12.562 7.182-24.424 11.18-34.91 26.82-70.35 65.052-136.718 102.038-201.344 13.048-22.796 23.434-47.208 29.62-72.774zM402.486 60.78c0-17.044 13.866-30.91 30.91-30.91 17.042 0 30.908 13.866 30.908 30.91v14.582h-61.818z m-34.136 53.652a9.208 9.208 0 0 1 9.198-9.198h111.696c5.072 0 9.2 4.126 9.2 9.198v72.732h-130.094z m136.486 762.666c-4.414 11.578-8.064 23.986-11.928 37.126-5.504 18.716-11.194 38.072-19.198 54.58-7.686 15.858-22.758 25.326-40.316 25.326s-32.63-9.466-40.316-25.326c-8.002-16.508-13.694-35.864-19.198-54.584-3.864-13.136-7.512-25.544-11.926-37.122-8.648-22.682-18.96-46.144-31.26-71.194 26.204-1.574 41.098-10.04 54.354-17.618 13.106-7.492 24.424-13.962 48.326-13.962s35.22 6.47 48.328 13.964c13.262 7.58 28.164 16.05 54.392 17.618-12.298 25.048-22.61 48.51-31.258 71.192z m46.378-100.958a117.93 117.93 0 0 1-6.358 0.176c-23.902 0-35.22-6.47-48.328-13.964-14.678-8.39-31.314-17.9-63.152-17.9s-48.474 9.51-63.15 17.9c-13.106 7.492-24.424 13.964-48.328 13.964-2.182 0-4.274-0.064-6.318-0.174-12.208-23.372-24.66-46.114-36.218-66.766 10.806 4.306 24.12 7.496 42.536 7.496 31.838 0 48.474-9.51 63.152-17.902 13.106-7.492 24.424-13.962 48.326-13.962s35.22 6.47 48.328 13.964c14.678 8.39 31.314 17.9 63.152 17.9 18.444 0 31.77-3.2 42.588-7.516-11.566 20.662-24.024 43.412-36.23 66.784z m63.27-114.936l-0.752 1.442c-7.928 3.174-14.554 6.962-20.53 10.382-13.112 7.496-24.434 13.972-48.346 13.972-23.902 0-35.22-6.47-48.328-13.964-14.678-8.39-31.314-17.9-63.152-17.9s-48.474 9.51-63.15 17.9c-13.106 7.494-24.424 13.964-48.328 13.964s-35.224-6.472-48.33-13.966c-5.968-3.412-12.582-7.19-20.49-10.36-0.302-0.576-0.602-1.15-0.9-1.726-6.786-13.1-12.74-27.266-17.062-41.41-5.508-18.026-8.692-37.016-9.026-55.888a189.476 189.476 0 0 1 1.108-24.434c0.49-4.474 1.14-8.944 1.944-13.408 12.204 2.38 20.424 7.076 29.6 12.32 14.678 8.388 31.316 17.896 63.156 17.896a14.936 14.936 0 1 0 0-29.872c-23.906 0-35.226-6.47-48.336-13.96-9.962-5.694-20.936-11.94-36.984-15.34 3.832-11.478 8.684-22.916 14.608-34.304a496.474 496.474 0 0 1 7.482-13.782l0.064 0.036c14.68 8.394 31.318 17.906 63.164 17.906 31.838 0 48.474-9.51 63.152-17.902 13.106-7.492 24.424-13.962 48.326-13.962s35.22 6.47 48.328 13.964c14.678 8.39 31.314 17.9 63.152 17.9s48.468-9.5 63.14-17.882l0.124-0.07c2.568 4.58 5.08 9.168 7.486 13.79 6.082 11.694 11.034 23.44 14.91 35.226-16.118 3.28-27.116 9.332-37.1 14.846-13.152 7.262-24.512 13.534-48.56 13.534-23.902 0-35.22-6.47-48.328-13.964-14.678-8.39-31.314-17.9-63.152-17.9-25.396 0-41.04 6.254-51.832 11.702a14.936 14.936 0 0 0 13.46 26.666c8.742-4.412 19.442-8.496 38.372-8.496 23.902 0 35.22 6.47 48.328 13.964 14.678 8.39 31.314 17.9 63.152 17.9 31.748 0 48.35-9.168 62.998-17.256 9.238-5.1 17.508-9.668 29.85-11.978a195.214 195.214 0 0 1 2.258 16.216c3.822 39.286-5.942 79.242-23.56 114.446-0.63 1.258-1.268 2.508-1.916 3.752zM215.936 326.608c4.22-16.15 15.866-44.588 46.446-53.576 7.566-2.224 12.652-9.024 12.652-16.918 0-7.896-5.084-14.694-12.65-16.918-30.58-8.988-42.226-37.426-46.446-53.578-2.028-7.76-9.046-13.18-17.066-13.18s-15.038 5.42-17.066 13.18c-4.22 16.15-15.866 44.588-46.448 53.578-7.566 2.222-12.648 9.022-12.648 16.918 0 7.894 5.084 14.692 12.65 16.916 30.582 8.988 42.228 37.426 46.448 53.578a17.646 17.646 0 0 0 17.066 13.176 17.64 17.64 0 0 0 17.062-13.176z m-46.97-70.494c13.696-9.222 23.252-21.288 29.904-33.198 6.652 11.91 16.21 23.976 29.904 33.198-13.694 9.224-23.252 21.29-29.904 33.2-6.652-11.91-16.21-23.976-29.904-33.2zM758.468 818.74c-30.582-8.988-42.228-37.424-46.448-53.578a17.644 17.644 0 0 0-17.064-13.18h-0.006a17.644 17.644 0 0 0-17.062 13.19c-4.222 16.152-15.872 44.58-46.446 53.568-7.564 2.222-12.648 9.022-12.648 16.918 0 7.894 5.084 14.692 12.648 16.916 30.58 8.988 42.228 37.426 46.448 53.57a17.64 17.64 0 0 0 17.062 13.186h0.006a17.648 17.648 0 0 0 17.066-13.18c4.218-16.15 15.864-44.586 46.448-53.576 7.566-2.222 12.648-9.022 12.648-16.916 0-7.896-5.084-14.694-12.652-16.918z m-63.514 50.114c-6.65-11.91-16.21-23.974-29.904-33.198 13.694-9.222 23.254-21.286 29.904-33.198 6.654 11.912 16.212 23.976 29.906 33.2-13.696 9.222-23.252 21.286-29.906 33.196zM888.644 588.664c-30.582-8.988-42.228-37.424-46.448-53.576a17.642 17.642 0 0 0-17.064-13.18 17.644 17.644 0 0 0-17.066 13.18l-0.002 0.002c-4.218 16.148-15.864 44.584-46.448 53.574-7.564 2.222-12.648 9.022-12.648 16.918s5.084 14.694 12.65 16.918c30.582 8.988 42.228 37.424 46.448 53.576a17.644 17.644 0 0 0 17.066 13.18c8.02 0 15.038-5.42 17.066-13.182 4.218-16.15 15.864-44.584 46.446-53.574 7.564-2.222 12.648-9.022 12.648-16.918 0.002-7.896-5.082-14.694-12.648-16.918z m-63.514 50.116c-6.65-11.908-16.21-23.978-29.906-33.198 13.694-9.22 23.254-21.29 29.906-33.198 6.654 11.908 16.214 23.978 29.906 33.198-13.694 9.222-23.252 21.288-29.906 33.198z" p-id="2988"></path></svg>