<?xml version="1.0" standalone="no"?><!DOCTYPE svg PUBLIC "-//W3C//DTD SVG 1.1//EN" "http://www.w3.org/Graphics/SVG/1.1/DTD/svg11.dtd">
<svg t="1639709743520" class="icon" viewBox="0 0 1024 1024" version="1.1" xmlns="http://www.w3.org/2000/svg" p-id="2365" xmlns:xlink="http://www.w3.org/1999/xlink" width="200" height="200"><defs><style type="text/css"></style></defs><path d="M512 608m-416 0a416 416 0 1 0 832 0 416 416 0 1 0-832 0Z" fill="#d81e06" p-id="2366"></path><path d="M512 192c44.688 0 87.664 7.216 128 20.288V160c0-17.696-14.32-32-32-32H416c-17.696 0-32 14.304-32 32v52.288A414.368 414.368 0 0 1 512 192zM512 0c-53.04 0-96 42.96-96 96v32h64V96c0-17.696 14.304-32 32-32 17.68 0 32 14.304 32 32v32h64V96c0-53.04-42.96-96-96-96z" fill="#d81e06" p-id="2367"></path><path d="M416 96h64v32h-64zM544 96h64v32h-64z" opacity=".3" p-id="2368" fill="#d81e06"></path><path d="M512 832c-166.128 0-314.592-74.688-414.368-192.032C114 854.72 293.04 1024 512 1024s398-169.28 414.368-384.032C826.592 757.312 678.128 832 512 832z" opacity=".15" p-id="2369" fill="#d81e06"></path><path d="M512 320c-17.696 0-32 14.304-32 32s14.304 32 32 32c123.712 0 224 100.288 224 224 0 17.696 14.304 32 32 32 17.68 0 32-14.304 32-32 0-159.056-128.944-288-288-288z" fill="#d81e06" opacity=".2" p-id="2370"></path>
</svg>