<?xml version="1.0" standalone="no"?><!DOCTYPE svg PUBLIC "-//W3C//DTD SVG 1.1//EN" "http://www.w3.org/Graphics/SVG/1.1/DTD/svg11.dtd"><svg t="1639709761530" class="icon" viewBox="0 0 1024 1024" version="1.1" xmlns="http://www.w3.org/2000/svg" p-id="2825" xmlns:xlink="http://www.w3.org/1999/xlink" width="200" height="200"><defs><style type="text/css"></style></defs><path d="M89.864 862.776c-5.008 19.164-19.04 53.108-56.74 64.188-2.57 0.756-2.57 4.426 0 5.18 37.7 11.08 51.732 45.026 56.74 64.188 0.704 2.696 4.532 2.696 5.236 0 5.008-19.164 19.04-53.108 56.74-64.188 2.57-0.756 2.57-4.426 0-5.18-37.7-11.08-51.732-45.026-56.74-64.188-0.704-2.696-4.532-2.696-5.236 0zM928.9 193.038c-5.008 19.164-19.04 53.108-56.74 64.188-2.57 0.756-2.57 4.426 0 5.18 37.7 11.08 51.732 45.026 56.74 64.188 0.704 2.696 4.532 2.696 5.236 0 5.008-19.164 19.04-53.108 56.74-64.188 2.57-0.756 2.57-4.426 0-5.18-37.7-11.08-51.732-45.026-56.74-64.188-0.704-2.696-4.532-2.696-5.236 0z" fill="#FEE45A" p-id="2826"></path><path d="M990.884 262.402c-37.712 11.082-51.746 45.028-56.748 64.184-0.698 2.712-4.524 2.712-5.242 0-2.79-10.664-8.372-25.932-19.294-39.268 6.1-17.68 19.016-41.32 45.886-52.602 8.512 9.608 19.972 17.98 35.4 22.504 2.568 0.758 2.568 4.426-0.002 5.182zM151.84 932.14c-37.712 11.082-51.746 45.028-56.748 64.184-0.698 2.712-4.524 2.712-5.242 0-2.79-10.664-8.372-25.932-19.294-39.268 6.1-17.68 19.016-41.32 45.886-52.602 8.512 9.608 19.972 17.98 35.4 22.504 2.568 0.756 2.568 4.424-0.002 5.182z" fill="#FED402" p-id="2827"></path><path d="M605.836 229.178H422.74V128.832c0-15.256 12.368-27.624 27.624-27.624h127.848c15.256 0 27.624 12.368 27.624 27.624z" fill="#918291" p-id="2828"></path><path d="M605.844 128.834v100.342h-41.36V128.834c0-15.248-12.378-27.626-27.626-27.626h41.36c15.246-0.002 27.626 12.378 27.626 27.626z" fill="#7A6D79" p-id="2829"></path><path d="M512 594.686m-414.364 0a414.364 414.364 0 1 0 828.728 0 414.364 414.364 0 1 0-828.728 0Z" fill="#EE6161" p-id="2830"></path><path d="M926.362 594.68c0 228.848-185.514 414.362-414.362 414.362-59.978 0-116.986-12.736-168.452-35.68 41.58 14.032 86.15 21.628 132.472 21.628 228.848 0 414.382-185.514 414.382-414.362 0-168.85-100.998-314.1-245.85-378.662C808.4 257.26 926.362 412.196 926.362 594.68z" fill="#E94444" p-id="2831"></path><path d="M926.362 594.68c0 29.022-2.99 57.346-8.65 84.674l-56.848 45.028a10.87 10.87 0 0 1-13.494 0l-72.056-57.088a10.87 10.87 0 0 0-13.494 0l-72.036 57.088a10.87 10.87 0 0 1-13.494 0l-72.036-57.088a10.87 10.87 0 0 0-13.494 0l-72.036 57.088a10.87 10.87 0 0 1-13.494 0l-72.036-57.088a10.84 10.84 0 0 0-13.474 0l-72.036 57.088a10.87 10.87 0 0 1-13.494 0l-72.036-57.088a10.84 10.84 0 0 0-13.474 0l-72.056 57.088a10.84 10.84 0 0 1-13.474 0l-56.848-45.028a417.194 417.194 0 0 1-8.65-84.674c0-38.908 5.362-76.582 15.408-112.3l50.09 39.686a10.84 10.84 0 0 0 13.474 0l72.056-57.088a10.84 10.84 0 0 1 13.474 0l72.036 57.088a10.87 10.87 0 0 0 13.494 0l72.036-57.088a10.84 10.84 0 0 1 13.474 0l72.036 57.088a10.87 10.87 0 0 0 13.494 0l72.036-57.088a10.87 10.87 0 0 1 13.494 0l72.036 57.088a10.87 10.87 0 0 0 13.494 0l72.036-57.088a10.87 10.87 0 0 1 13.494 0l72.056 57.088a10.87 10.87 0 0 0 13.494 0l50.09-39.686c10.046 35.72 15.408 73.392 15.408 112.3z" fill="#F3F0F3" p-id="2832"></path><path d="M926.344 594.68c0.016 7.232-0.164 14.444-0.54 21.628-0.998 19.088-3.204 38.062-6.856 56.808-0.41 2.104-0.682 4.212-1.26 6.274-3.86 2.858-7.646 6.042-11.438 9.046l-22.512 17.826-16.284 12.894c-0.222 0.176-0.988 0.582-1.088 0.862 15.568-43.552 24.038-90.474 24.038-139.39 0-26.092-2.412-51.646-7.036-76.402l27.586-21.846c0.618 2.232 1.236 4.464 1.834 6.718a389.71 389.71 0 0 1 4.804 20.432 400.394 400.394 0 0 1 4.824 27.806 434.12 434.12 0 0 1 3.928 57.344z" fill="#E2DEE2" p-id="2833"></path><path d="M156.056 912.622c-30.61-8.998-42.266-37.46-46.49-53.626-2.03-7.766-9.054-13.192-17.082-13.192s-15.052 5.426-17.082 13.192c-4.224 16.166-15.88 44.628-46.492 53.626-7.572 2.226-12.66 9.03-12.66 16.934 0 7.902 5.088 14.708 12.662 16.934 30.61 8.998 42.268 37.46 46.492 53.626 2.03 7.766 9.054 13.192 17.082 13.192s15.052-5.426 17.082-13.192c4.224-16.166 15.882-44.628 46.492-53.626 7.572-2.226 12.66-9.03 12.66-16.934-0.002-7.904-5.092-14.708-12.664-16.934z m-63.574 50.164c-6.658-11.92-16.226-24-29.934-33.232 13.708-9.23 23.276-21.31 29.934-33.23 6.66 11.92 16.226 24 29.936 33.23-13.71 9.232-23.276 21.312-29.936 33.232zM995.092 242.886c-30.61-8.996-42.268-37.462-46.49-53.624a17.666 17.666 0 0 0-17.08-13.196h-0.002a17.668 17.668 0 0 0-17.084 13.192v0.002c-4.224 16.166-15.88 44.628-46.492 53.626-7.572 2.224-12.66 9.03-12.66 16.934 0 7.902 5.088 14.706 12.662 16.932 30.61 8.996 42.266 37.46 46.49 53.626a17.664 17.664 0 0 0 17.084 13.192h0.002a17.66 17.66 0 0 0 17.078-13.192c4.224-16.166 15.882-44.628 46.492-53.626 7.572-2.224 12.66-9.03 12.66-16.932 0-7.904-5.088-14.71-12.66-16.934z m-63.574 50.16c-6.658-11.92-16.224-23.998-29.934-33.23 13.708-9.23 23.274-21.306 29.934-33.228 6.66 11.92 16.224 23.998 29.934 33.23-13.71 9.23-23.274 21.308-29.934 33.228zM620.786 179.228V128.832c0-23.066-18.45-41.864-41.364-42.514v-18.896C579.424 30.246 549.176 0 512 0s-67.422 30.246-67.422 67.422v19.276c-20.74 2.838-36.786 20.626-36.786 42.134v49.21c-74.818 18.572-143.446 57.156-199.362 113.072-81.086 81.088-125.744 188.898-125.744 303.57 0 114.674 44.656 222.486 125.744 303.57C289.516 979.344 397.326 1024 512 1024c38.796 0 77.254-5.178 114.308-15.388a14.95 14.95 0 0 0 10.442-18.384 14.948 14.948 0 0 0-18.384-10.442c-34.466 9.498-70.252 14.314-106.364 14.314-176.792 0-327.098-115.468-379.53-274.94l21.38 16.934a25.736 25.736 0 0 0 16.028 5.614c5.652 0 11.304-1.87 16.018-5.608l69.51-55.07 69.514 55.088a25.726 25.726 0 0 0 32.04-0.02l69.49-55.068 69.514 55.088a25.726 25.726 0 0 0 32.04-0.02l69.498-55.076 69.524 55.096a25.724 25.724 0 0 0 32.042-0.02l69.498-55.076 69.516 55.074c9.418 7.466 22.596 7.476 32.064 0.004l21.494-17.026a397.252 397.252 0 0 1-44.51 93.008c-40.99 63.052-98.592 113.132-166.582 144.824a14.95 14.95 0 0 0 12.632 27.1c73.068-34.06 134.972-87.876 179.016-155.626 45.218-69.558 69.12-150.368 69.12-233.694 0-114.674-44.656-222.484-125.744-303.57-54.776-54.774-121.75-92.894-194.788-111.888z m-146.31-111.806c0-20.69 16.834-37.524 37.524-37.524s37.524 16.834 37.524 37.524v18.834h-75.048z m-36.788 61.41a12.69 12.69 0 0 1 12.676-12.676h127.848a12.688 12.688 0 0 1 12.674 12.676v43.758a434.04 434.04 0 0 0-78.888-7.22 434.51 434.51 0 0 0-74.31 6.37z m-121.184 398.3l8.416 6.668a25.726 25.726 0 0 0 32.04-0.02l69.49-55.068 69.514 55.088a25.726 25.726 0 0 0 32.04-0.02l69.498-55.076 69.524 55.096a25.724 25.724 0 0 0 32.042-0.02l69.498-55.076 69.516 55.074c9.418 7.468 22.596 7.476 32.066 0.004l31.882-25.262c0.378 1.71 0.764 3.416 1.12 5.134 1.644 7.94 3.03 15.934 4.184 23.96a400.56 400.56 0 0 1 4.078 57.068c0 10.934-0.046 22.028-1.24 32.942-1.47 13.42-3.006 26.96-5.486 40.328-0.192 1.04-0.394 2.08-0.596 3.118l-49.976 39.586-69.514-55.072c-9.42-7.472-22.596-7.48-32.07-0.004l-69.498 55.076-69.494-55.072c-9.422-7.472-22.598-7.48-32.07-0.004l-69.498 55.076-69.494-55.072a25.688 25.688 0 0 0-32.05-0.004l-69.498 55.076-69.494-55.072a25.69 25.69 0 0 0-32.048-0.006l-69.51 55.07c-0.204 0.162-5.282-4.184-5.614-4.446-14.718-11.658-29.24-23.97-44.302-35.058-2.612-11.94-4.058-23.588-5.29-35.828a407.794 407.794 0 0 1-2.082-40.634c-0.002-17.384 1.14-34.876 3.396-52.116 0.858-6.552 1.88-13.076 3.058-19.574 0.876-4.83 1.874-9.678 2.93-14.468l31.876 25.256a25.684 25.684 0 0 0 32.048 0.006l69.51-55.07 6.494 5.146a14.946 14.946 0 0 0 21.002-2.432 14.95 14.95 0 0 0-2.432-21.002l-9.036-7.162a25.69 25.69 0 0 0-32.048-0.006l-69.51 55.07-39.58-31.36C180.654 314.008 332.716 195.27 512 195.27s331.346 118.738 381.706 281.7l-39.592 31.368-69.514-55.072c-9.42-7.47-22.596-7.478-32.07-0.004l-69.498 55.076-69.494-55.072c-9.422-7.47-22.598-7.478-32.07-0.004l-69.498 55.076-69.494-55.072a25.688 25.688 0 0 0-32.05-0.004l-69.498 55.076-5.852-4.638a14.948 14.948 0 0 0-21.002 2.432 14.948 14.948 0 0 0 2.43 21z" p-id="2834"></path><path d="M343.332 392.298a14.91 14.91 0 0 0 11.006 4.828 14.95 14.95 0 0 0 10.998-25.072l-17.342-18.85 17.342-18.85a14.95 14.95 0 0 0-22.004-20.244l-15.652 17.014-15.652-17.014a14.95 14.95 0 0 0-22.002 20.244l17.342 18.85-17.342 18.85a14.95 14.95 0 0 0 22.004 20.244l15.652-17.014zM475.224 393.178a14.9 14.9 0 0 0 10.118 3.948 14.91 14.91 0 0 0 11.006-4.828l15.652-17.014 15.652 17.014a14.91 14.91 0 0 0 11.006 4.828 14.95 14.95 0 0 0 10.998-25.072l-17.342-18.85 17.342-18.85a14.95 14.95 0 0 0-22.004-20.244L512 331.124l-15.652-17.014a14.952 14.952 0 0 0-22.004 20.244l17.342 18.85-17.342 18.85a14.95 14.95 0 0 0 0.88 21.124zM659.544 393.178a14.888 14.888 0 0 0 10.118 3.948 14.91 14.91 0 0 0 11.006-4.828l15.652-17.014 15.652 17.014a14.91 14.91 0 0 0 11.006 4.828 14.95 14.95 0 0 0 10.998-25.072l-17.342-18.85 17.342-18.85a14.95 14.95 0 0 0-22.002-20.244l-15.652 17.014-15.652-17.014a14.952 14.952 0 0 0-22.004 20.244l17.342 18.85-17.342 18.85a14.948 14.948 0 0 0 0.878 21.124zM364.456 796.184a14.946 14.946 0 0 0-21.124 0.88l-15.652 17.014-15.652-17.014a14.952 14.952 0 0 0-22.002 20.244l17.342 18.85-17.342 18.85a14.95 14.95 0 0 0 22.004 20.244l15.652-17.014 15.652 17.014a14.91 14.91 0 0 0 11.006 4.828 14.95 14.95 0 0 0 10.998-25.072l-17.342-18.85 17.342-18.85a14.952 14.952 0 0 0-0.882-21.124zM548.776 796.184a14.95 14.95 0 0 0-21.124 0.88L512 814.076l-15.652-17.014a14.95 14.95 0 0 0-22.004 20.244l17.342 18.85-17.342 18.85a14.95 14.95 0 0 0 22.004 20.244l15.652-17.014 15.652 17.014a14.91 14.91 0 0 0 11.006 4.828 14.95 14.95 0 0 0 10.998-25.072l-17.342-18.85 17.342-18.85a14.948 14.948 0 0 0-0.88-21.122zM696.32 858.238l15.652 17.014a14.91 14.91 0 0 0 11.006 4.828 14.95 14.95 0 0 0 10.998-25.072l-17.342-18.85 17.342-18.85a14.95 14.95 0 0 0-22.002-20.244l-15.652 17.014-15.652-17.014a14.95 14.95 0 0 0-22.004 20.244l17.342 18.85-17.342 18.85a14.95 14.95 0 0 0 22.004 20.244z" p-id="2835"></path></svg>